<svg xmlns="http://www.w3.org/2000/svg" width="128" height="128" viewBox="0 0 128 128">
  <defs>
    <linearGradient id="g" x1="0" y1="0" x2="1" y2="1">
      <stop offset="0%" stop-color="#0078FF"/>
      <stop offset="100%" stop-color="#00E5FF"/>
    </linearGradient>
  </defs>
  <rect width="128" height="128" rx="32" fill="#020617"/>
  <path d="M38 44c0-16.57 13.43-30 30-30s30 13.43 30 30v28c0 16.57-13.43 30-30 30s-30-13.43-30-30V44Z" fill="url(#g)"/>
  <path d="M48 44c0-8.84 7.16-16 16-16s16 7.16 16 16v16c0 8.84-7.16 16-16 16s-16-7.16-16-16V44Z" fill="#fff" opacity="0.88"/>
  <path d="M53 42c0-5.52 4.48-10 10-10s10 4.48 10 10v8c0 5.52-4.48 10-10 10s-10-4.48-10-10v-8Z" fill="#00F3FF"/>
</svg>